<?xml version="1.0" encoding="UTF-8"?>
<svg id="Layer_5" data-name="Layer 5" xmlns="http://www.w3.org/2000/svg" version="1.1" xmlns:xlink="http://www.w3.org/1999/xlink" viewBox="0 0 297.6 99.2">
  <defs>
    <style>
      .cls-1 {
        fill: url(#linear-gradient);
      }

      .cls-1, .cls-2, .cls-3 {
        stroke-width: 0px;
      }

      .cls-2 {
        fill: #ff8f01;
      }

      .cls-3 {
        fill: #fff;
      }
    </style>
    <linearGradient id="linear-gradient" x1="52.4" y1="32.9" x2=".6" y2="84.6" gradientTransform="translate(0 100.5) scale(1 -1)" gradientUnits="userSpaceOnUse">
      <stop offset=".1" stop-color="#ffc000"/>
      <stop offset=".9" stop-color="#f06c12"/>
    </linearGradient>
  </defs>
  <path class="cls-3" d="M99,42.3l-6.2,35c-.3,1.1-1,1.7-2,1.7h-4.6c-1.2,0-1.7-.6-1.3-1.7l9.7-55.2c.2-1.1.8-1.7,1.9-1.7h5.8c1.2,0,1.8.5,1.9,1.6l3.8,25.8c.3,1.5.2,3.2-.2,4.9h.2c.4-2.1,1-3.7,1.6-4.9l12.9-25.8c.6-1.1,1.3-1.6,2.4-1.6h5.9c1.2,0,1.6.6,1.4,1.7l-9.7,55.2c-.3,1.1-1,1.7-2,1.7h-4.6c-1.2,0-1.7-.6-1.3-1.7l6.2-35c.2-1.5.7-3.1,1.3-4.9h-.2c0,0-2,4.8-2,4.8l-11,22.7c-.6,1.1-1.4,1.6-2.5,1.6h-1.7c-1.1,0-1.7-.5-1.8-1.6l-3.1-22.7c-.2-1.4-.2-3.1-.2-4.9h-.2c0,1.9-.1,3.6-.3,5"/>
  <path class="cls-3" d="M154.5,77.4l-.4-7.9h-14.4l-3.2,7.9c-.5,1.1-1.3,1.6-2.3,1.6h-5.3c-.5,0-.8-.2-1-.5l-.2-.7,23.8-55.8c.5-1.1,1.3-1.6,2.3-1.6h3.4c1.1,0,1.7.5,1.8,1.6l4,55.4c.1,1.1-.4,1.6-1.5,1.6h-5.3c-1.2,0-1.8-.5-1.8-1.6M151.3,40.9l-8.2,20.2h10.5l-1.1-20.2c-.1-1.5,0-3.2.4-4.9h-.2c-.5,2-.9,3.6-1.4,4.9"/>
  <path class="cls-3" d="M188.6,56.4h-8l-3.7,20.9c-.3,1.1-1,1.7-2,1.7h-5c-1.2,0-1.6-.6-1.3-1.7l9.7-55.2c.2-1.1.8-1.7,1.9-1.7h14.6c3.6,0,6.4,1.1,8.2,3.4,1.8,2.2,2.4,5.2,1.8,8.8l-2.1,11.7c-.6,3.6-2.2,6.5-4.9,8.8-2.6,2.2-5.7,3.3-9.4,3.3M193.9,28.8h-8.4l-3.4,19.2h8.4c1,0,1.9-.3,2.6-.9.7-.6,1.2-1.4,1.3-2.4l2.2-12.5c.2-1,0-1.8-.5-2.4s-1.2-.9-2.2-.9"/>
  <path class="cls-3" d="M211,67.7c0,.9,0,1.8.5,2.4.5.6,1.2.9,2.2.9h6.3c1,0,1.9-.3,2.6-.9s1.2-1.4,1.3-2.4l1-5.8c.2-1.1-.1-2-.8-2.7l-12.8-13.5c-1.1-1.1-1.8-2.5-2.3-4.1s-.5-3.3-.3-4.9l.9-4.5c.6-3.6,2.2-6.5,4.9-8.8,2.6-2.2,5.7-3.4,9.4-3.4h4.5c3.6,0,6.4,1.1,8.2,3.4,1.8,2.2,2.4,5.1,1.8,8.8l-.9,5c-.2,1.1-.8,1.7-1.9,1.7h-5c-1.1,0-1.6-.6-1.4-1.7l1-5.4c.2-1,0-1.8-.5-2.4-.5-.6-1.3-.9-2.3-.9h-5.4c-1,0-1.9.3-2.6.9s-1.2,1.4-1.3,2.4l-.9,4.9c-.2,1.1.1,2,.8,2.7l12.8,13.5c1.1,1.1,1.8,2.5,2.3,4.2s.5,3.3.2,4.9l-.9,5.4c-.7,3.6-2.3,6.6-4.9,8.8-2.6,2.2-5.7,3.3-9.4,3.3h-5.4c-3.6,0-6.4-1.1-8.2-3.3-1.9-2.3-2.5-4.8-1.8-8.4"/>
  <path class="cls-2" d="M211.3,66.7l1.5-9c.1-.6-.4-1.2-1-1.2h-6c-.7,0-1.3.5-1.4,1.2l-1.5,9h8.4Z"/>
  <polygon class="cls-3" points="247.3 76.6 253.8 76.6 253.4 78.7 244.4 78.7 247.2 65 255.8 65 255.4 67.1 249.3 67.1 248.6 70.6 253.8 70.6 253.4 72.7 248.1 72.7 247.3 76.6"/>
  <path class="cls-3" d="M258.3,78.7h-2.5l2.8-13.7h3.7c.6,0,1.1,0,1.5,0h.8c1.2.5,1.9.9,2.3,1.4.4.6.6,1.2.6,2v1.1c-.4,1-.6,1.4-1,1.8l-.8.7c-1,.6-1.6.8-2.4,1h0s3,5.7,3,5.7h-2.8l-2.7-5.3h-1.7l-1.1,5.3h0ZM259.8,71.3h1c.5,0,.9,0,1.2,0h.7c.9-.3,1.4-.6,1.8-1l.6-.9c0-1,0-1.2-.2-1.5l-.4-.4-.7-.2c-.5,0-.8,0-1.2,0h-1.8l-.9,4.2h0Z"/>
  <path class="cls-3" d="M277.2,78.7l-2.8-6.1c-.7-1.5-1.2-2.8-1.6-3.9h0l-.6,3.9-1.3,6.1h-2.5l2.8-13.7h2.4l2.8,6.1c.7,1.5,1.2,2.8,1.6,3.9h0c0-.9.3-2.2.6-3.9l1.3-6.1h2.5l-2.8,13.7h-2.4Z"/>
  <path class="cls-3" d="M291.4,66.9h-1.1c-1,.4-1.5.7-1.9,1l-.8.7c-.6.8-.9,1.3-1.1,1.7l-.4,1c-.2,1.1-.3,1.6-.3,2.1v1.2c.5.9.7,1.2,1,1.5l.7.4c.9.2,1.3.3,1.9.3h1.1c1.1-.2,1.7-.4,2.3-.6l-.5,2.2c-.6.2-1.1.3-1.8.4h-1.2c-1.3.1-2.1,0-2.8-.2l-1.8-1c-.5-.4-.9-1-1.1-1.7l-.4-2.4c0-.7,0-1.3.2-2l.6-2c.3-.6.6-1.3,1-1.8l1.5-1.5c.6-.4,1.2-.8,2-1l2.5-.4c.5,0,1,0,1.7.1l1.2.2v2.2c-.4-.2-.9-.3-1.3-.3h-.9"/>
  <path class="cls-1" d="M76.5,32.2c-.3.7-.8.9-1.5.8-2.3,0-4.6,0-6.9,0s-1.2-.3-1.2-1.1v-7.2c0-.8.3-1.1,1.1-1.1,2.4,0,4.9,0,7.3,0,.6,0,.9.4,1.2.9v7.8h0ZM12.9,13.8c0-.7-.4-1.1-1.1-1.1h-7.4c-.7,0-1.1.4-1.1,1.1,0,2.5,0,4.9,0,7.4,0,.8.4,1.2,1.2,1.2h7.2c.8,0,1.2-.4,1.2-1.2v-3.6c0-1.2,0-2.5,0-3.7ZM34.1,60.4v-3.6c0-.9-.4-1.2-1.2-1.2h-7.1c-.8,0-1.2.4-1.2,1.2v7.3c0,.8.4,1.2,1.2,1.2h7.1c.8,0,1.2-.4,1.2-1.2v-3.6h0ZM25.6,12.7c-.8,0-1.1.4-1.1,1.1v7.3c0,.9.4,1.2,1.2,1.2h7.1c.9,0,1.2-.4,1.2-1.2v-7.3c0-.7-.4-1.1-1.1-1.1h-7.3,0ZM23.4,17.6v-3.7c0-.8-.3-1.1-1.1-1.1h-7.4c-.7,0-1.1.4-1.1,1,0,2.5,0,5,0,7.4,0,.8.4,1.1,1.2,1.1h7.2c.8,0,1.2-.3,1.2-1.1v-3.6h0ZM45.8,21.1c0,1,.3,1.3,1.3,1.3h7c.9,0,1.3-.3,1.3-1.3v-7.1c0-.8-.3-1.2-1.2-1.2h-7.2c-.8,0-1.2.4-1.2,1.2v7.1h0ZM50.6,55.5h-3.7c-.8,0-1.2.4-1.2,1.2v7.2c0,.8.4,1.2,1.2,1.2h7.1c.8,0,1.2-.4,1.2-1.2v-7.2c0-.8-.3-1.1-1.1-1.1h-3.5s0,0,0,0ZM35.2,17.5v3.6c0,.9.3,1.2,1.2,1.2h7c.9,0,1.3-.3,1.3-1.2v-7.2c0-.8-.3-1.1-1.1-1.1h-7.2c-.8,0-1.1.3-1.1,1.1v3.6h0ZM44.7,60.4v-3.7c0-.8-.3-1.1-1.1-1.1-2.5,0-4.9,0-7.3,0-.7,0-1,.4-1,1v7.5c0,.7.4,1,1.1,1h7.3c.8,0,1.1-.3,1.1-1.1v-3.7h0ZM23.4,3.2c0-.8-.4-1.2-1.2-1.2h-7.2c-.8,0-1.2.4-1.2,1.2v7.2c0,.8.4,1.1,1.1,1.1h7.3c.8,0,1.1-.3,1.1-1.1V3.2h0ZM32.9,11.6c.7,0,1.1-.4,1.1-1.1V3.2c0-.7-.4-1.1-1.1-1.1-2.5,0-4.9,0-7.3,0-.7,0-1.1.4-1.1,1.1v7.3c0,.7.4,1.1,1.1,1.1h7.3,0ZM23.4,35.3c0-.7-.4-1.1-1.1-1.1h-7.3c-.7,0-1.1.4-1.1,1.1,0,2.4,0,4.9,0,7.3,0,.8.4,1.1,1.1,1.1h7.2c.8,0,1.1-.4,1.1-1.1v-7.4h0ZM12.9,24.7c0-.9-.3-1.2-1.2-1.2h-7.1c-.8,0-1.2.4-1.2,1.1,0,2.5,0,4.9,0,7.4,0,.7.4,1,1.1,1h7.4c.7,0,1.1-.4,1.1-1.1v-7.2h0ZM24.5,42.5c0,.8.4,1.2,1.1,1.2h7.2c.8,0,1.2-.4,1.2-1.2v-7.2c0-.8-.4-1.2-1.2-1.2h-7.2c-.8,0-1.2.4-1.2,1.2v7.1h0ZM32.9,33c.8,0,1.2-.3,1.2-1.2v-7.1c0-.8-.4-1.2-1.2-1.2-.8,0-1.5,0-2.3,0h-4.8c-.9,0-1.2.4-1.2,1.2v7.2c0,.8.4,1.1,1.1,1.1h7.3ZM50.5,33h3.6c.9,0,1.2-.3,1.2-1.2v-7c0-1-.3-1.3-1.3-1.3h-7c-.9,0-1.2.4-1.2,1.2v7.1c0,.9.3,1.2,1.2,1.2h3.5ZM23.4,28.2v-3.5c0-.8-.3-1.2-1.2-1.2-2.4,0-4.8,0-7.2,0-.8,0-1.1.4-1.1,1.1v7.2c0,.8.4,1.1,1.1,1.1h7.2c.8,0,1.1-.3,1.1-1.1v-3.6h0ZM50.6,34.2h-3.7c-.7,0-1.1.4-1.1,1.1v7.2c0,.8.4,1.1,1.1,1.1h7.2c.8,0,1.2-.4,1.2-1.2v-7.2c0-.8-.4-1.2-1.2-1.2h-3.6,0ZM43.6,11.6c.8,0,1.1-.3,1.1-1.1V3.2c0-.8-.4-1.1-1.1-1.1h-7.2c-.7,0-1.1.4-1.1,1.1v7.3c0,.7.4,1.1,1.1,1.1h3.7c1.2,0,2.4,0,3.6,0ZM44.7,38.9v-3.7c0-.8-.3-1.1-1.1-1.1h-7.2c-.8,0-1.1.3-1.1,1.2v7.2c0,.8.3,1.2,1.2,1.2h7.2c.8,0,1.2-.3,1.2-1.2v-3.6h0ZM40,33h3.5c.9,0,1.2-.3,1.2-1.2v-7.1c0-.8-.3-1.2-1.2-1.2-.8,0-1.5,0-2.3,0h-4.8c-.9,0-1.2.4-1.2,1.2v7.1c0,.8.3,1.2,1.1,1.2h3.6ZM29.3,54.3h3.6c.7,0,1.1-.4,1.1-1.1v-7.2c0-.7-.4-1.1-1.1-1.1h-7.3c-.8,0-1.1.3-1.1,1.1v7.2c0,.8.3,1.1,1.2,1.1h3.6ZM29.3,75.8h3.6c.8,0,1.1-.3,1.1-1.1v-7.2c0-.7-.4-1.1-1.1-1.1h-7.4c-.7,0-1.1.4-1.1,1.1v7.2c0,.8.3,1.1,1.1,1.1h3.7ZM29.3,77h-3.6c-.8,0-1.1.3-1.1,1.1v7.2c0,.8.4,1.1,1.1,1.1h7.3c.7,0,1.1-.4,1.1-1.1,0-2.4,0-4.9,0-7.3,0-.7-.3-1-1.1-1h-3.7ZM23.3,88.7c0-.6-.4-1-.9-1-2.5,0-5.1,0-7.6,0-.6,0-.9.4-.9.9v7.7c0,.5.3.8.7.8.4,0,.7,0,1.1,0h6.4c.9,0,1.2-.4,1.2-1.2v-7.3h0ZM50.5,44.9h-3.6c-.8,0-1.1.3-1.1,1.1v7.2c0,.8.4,1.1,1.1,1.1h7.3c.7,0,1.1-.4,1.1-1.1v-7.2c0-.7-.4-1.1-1.1-1.1h-3.7ZM65.8,38.9v-3.5c0-.9-.3-1.2-1.2-1.2h-7.1c-.9,0-1.2.3-1.2,1.2v7.1c0,.9.3,1.2,1.3,1.2h5.4c.6,0,1.2,0,1.8,0,.8,0,1-.4,1-1.1v-3.6h0ZM65.8,28.3v-3.6c0-.7-.3-1-1-1.1-.6,0-1.2,0-1.8,0-1.8,0-3.5,0-5.3,0-1,0-1.3.3-1.3,1.3,0,2.4,0,4.7,0,7.1,0,.8.3,1.1,1.1,1.1h7.2c.8,0,1.1-.3,1.1-1.1v-3.6h0ZM40,44.9h-3.6c-.8,0-1.1.3-1.1,1.1v7.3c0,.7.3,1,1,1h7.4c.7,0,1-.3,1-1,0-2.5,0-4.9,0-7.4,0-.7-.3-1-1-1h-3.7,0ZM18.6,77h-3.6c-.8,0-1.1.3-1.1,1.1v7.2c0,.8.3,1.1,1.1,1.1h7.3c.8,0,1.1-.3,1.1-1.1v-7.2c0-.8-.3-1.1-1-1.1h-3.7ZM40,66.3h-3.7c-.7,0-1.1.3-1.1,1v7.3c0,.7.3,1,1.1,1h7.3c.7,0,1-.3,1-1.1v-7.3c0-.8-.3-1.1-1.1-1.1h-3.6ZM56.4,49.6v3.7c0,.8.3,1.1,1.1,1.1h7.2c.8,0,1.1-.3,1.1-1.1v-7.2c0-.8-.3-1.1-1.1-1.1h-7.2c-.8,0-1.1.3-1.1,1.1v3.7h0Z"/>
</svg>